# xmcd
#
# Track frame offsets:
#	150
#	8334
#	19218
#	32329
#	43481
#	55156
#	59949
#	74998
#	85629
#	94879
#	106149
#	117866
#	129436
#	140008
#	153357
#	165904
#
# Disc length: 2425 seconds
#
# Revision: 1
# Processed by: cddbd v1.5.2PL0 Copyright (c) Steve Scherf et al.
# Submitted via: audiograbber 1.83.01
#
DISCID=d5097710
DTITLE=Various Artist - Country Legends CD11 Railroad Bill
DYEAR=2005
DGENRE=Country
TTITLE0=Jim Reeves - Roly Poly
TTITLE1=Willie Nelson - Go Away
TTITLE2=Gene Autry - Silver Haired Daddy Of Mine
TTITLE3=Conway Twitty - Big Town
TTITLE4=Charley Pride - Shutters And Boards
TTITLE5=Anne Murray - Railroad Bill
TTITLE6=Billie Jo Spears - I'll Never Be Free
TTITLE7=Jimmy C. Newman - Corina Corina
TTITLE8=Webb Pierce - Honky Tonk Song
TTITLE9=Patsy Cline - A Stranger In My Arms
TTITLE10=Freddy Fender - She's About A Mover
TTITLE11=Frankie Laine - Mule Train
TTITLE12=Loretta Lynn - Somebody Somewhere
TTITLE13=Jerry Lee Lewis - Goodnight Irene
TTITLE14=Hank Williams - Lovesick Blues
TTITLE15=Tina Turner - Lay It Down
EXTD=
EXTT0=
EXTT1=
EXTT2=
EXTT3=
EXTT4=
EXTT5=
EXTT6=
EXTT7=
EXTT8=
EXTT9=
EXTT10=
EXTT11=
EXTT12=
EXTT13=
EXTT14=
EXTT15=
PLAYORDER=
